<svg xmlns="http://www.w3.org/2000/svg" width="192" height="192" viewBox="0 0 192 192">
  <rect width="192" height="192" rx="32" fill="#1e293b"/>
  <rect x="32" y="48" width="128" height="88" rx="12" fill="#3b82f6"/>
  <rect x="40" y="56" width="112" height="56" rx="6" fill="#1e40af"/>
  <!-- windows -->
  <rect x="48" y="62" width="28" height="20" rx="4" fill="#93c5fd"/>
  <rect x="82" y="62" width="28" height="20" rx="4" fill="#93c5fd"/>
  <rect x="116" y="62" width="24" height="20" rx="4" fill="#93c5fd"/>
  <!-- door -->
  <rect x="48" y="88" width="22" height="24" rx="3" fill="#1e40af"/>
  <rect x="122" y="88" width="22" height="24" rx="3" fill="#1e40af"/>
  <!-- wheels -->
  <circle cx="64" cy="148" r="18" fill="#334155"/>
  <circle cx="64" cy="148" r="9" fill="#94a3b8"/>
  <circle cx="128" cy="148" r="18" fill="#334155"/>
  <circle cx="128" cy="148" r="9" fill="#94a3b8"/>
  <!-- bumper -->
  <rect x="28" y="130" width="136" height="10" rx="5" fill="#475569"/>
  <!-- plus sign for care -->
  <rect x="148" y="20" width="28" height="8" rx="4" fill="#22c55e"/>
  <rect x="158" y="10" width="8" height="28" rx="4" fill="#22c55e"/>
</svg>
